<?xml version="1.0" encoding="UTF-8"?>
<!DOCTYPE svg PUBLIC "-//W3C//DTD SVG 1.1//EN" "http://www.w3.org/Graphics/SVG/1.1/DTD/svg11.dtd">
<!-- Creator: CorelDRAW X7 -->
<svg xmlns="http://www.w3.org/2000/svg" xml:space="preserve" width="210mm" height="297mm" version="1.1" style="shape-rendering:geometricPrecision; text-rendering:geometricPrecision; image-rendering:optimizeQuality; fill-rule:evenodd; clip-rule:evenodd"
viewBox="0 0 21000 29700"
 xmlns:xlink="http://www.w3.org/1999/xlink">
 <defs>
  <style type="text/css">
   <![CDATA[
    .fil0 {fill:red}
   ]]>
  </style>
 </defs>
 <g id="Layer_x0020_1">
  <metadata id="CorelCorpID_0Corel-Layer"/>
  <path class="fil0" d="M14270 8101l873 0 1076 0 0 688 -1076 0 0 2823 -873 0 0 -2823 -1076 0 0 -688 1076 0zm-4295 1601l-591 0 0 5 -926 0 0 1905 926 0 0 -1310 699 0c772,0 1320,-491 1320,-1091 0,-601 -456,-1092 -1320,-1092l-1996 0 -864 0 0 2161 -1244 -2161 -908 0 0 2708c0,0 -970,-88 -1085,767l1085 0 0 18 908 0 0 -2082 1244 2082 864 0 0 -2906 1888 0c274,0 498,224 498,498 0,274 -224,498 -498,498zm1860 -1601l926 0 0 3511 -926 0 0 -3511z"/>
 </g>
</svg>
